<?xml version="1.0" encoding="UTF-8"?>
<svg version="1.1" xmlns="http://www.w3.org/2000/svg" width="512" height="512">
<path d="M0 0 C5.94 0 11.88 0 18 0 C18.33 48.18 18.66 96.36 19 146 C21.97 141.71 24.94 137.42 28 133 C29.32 131.35 30.64 129.7 32 128 C32.39504279 125.25940515 32.56499776 122.9168998 32.54589844 120.18041992 C32.55623611 119.40915771 32.56657379 118.63789551 32.57722473 117.84326172 C32.60661621 115.30545003 32.60815108 112.76843714 32.609375 110.23046875 C32.62435917 108.46639997 32.64108682 106.7023452 32.65948486 104.93830872 C32.70314418 100.30395864 32.72315428 95.6697978 32.73822021 91.03527832 C32.75779643 86.30270199 32.79976587 81.57032988 32.83984375 76.83789062 C32.91513073 67.5586222 32.96336083 58.2795016 33 49 C38.94 49 44.88 49 51 49 C51.33 68.8 51.66 88.6 52 109 C64.67435744 102.04446256 64.67435744 102.04446256 66.56762695 95.85717773 C66.65743394 93.78660345 66.65743394 93.78660345 66.48828125 91.68359375 C66.49208298 90.94166275 66.4958847 90.19973175 66.49980164 89.43531799 C66.49802742 87.0974057 66.40709341 84.77330404 66.3125 82.4375 C66.29548183 80.84054712 66.28436372 79.2435199 66.27929688 77.64648438 C66.26516239 73.75546189 66.13035432 69.89567103 66 66 C71.94 66 77.88 66 84 66 C84 74.25 84 82.5 84 91 C86.18625 90.236875 88.3725 89.47375 90.625 88.6875 C124.14971547 77.33823636 160.49062787 80.14281119 192.24609375 95.48852539 C198.89398973 98.81728074 205.02292719 102.5596335 211 107 C211.81082031 107.58910156 212.62164062 108.17820312 213.45703125 108.78515625 C225.95708661 118.29650694 236.62147871 129.73578457 245 143 C245.39026367 143.61568848 245.78052734 144.23137695 246.18261719 144.86572266 C264.29772964 173.9798296 270.50320912 210.63558717 262.90722656 244.21948242 C259.16922928 258.86623309 253.71643688 275.73220883 243.91571045 287.50332642 C241.22210228 292.41986718 241.4275061 296.62420319 241.45410156 302.14599609 C241.44376389 303.2587793 241.43342621 304.3715625 241.42277527 305.51806641 C241.39333883 309.186671 241.39184785 312.85472407 241.390625 316.5234375 C241.37564402 319.07078097 241.35891705 321.61811473 241.34051514 324.16543579 C241.30128369 330.17889836 241.27962819 336.1921745 241.26654124 342.20573008 C241.25065146 349.05468707 241.21222764 355.90346031 241.17194796 362.75231051 C241.08962837 376.83481647 241.03628604 390.91730697 241 405 C235.06 405 229.12 405 223 405 C222.505 359.46 222.505 359.46 222 313 C218.7 315.97 215.4 318.94 212 322 C211.01 322.66 210.02 323.32 209 324 C208.53810104 326.09892407 208.53810104 326.09892407 208.60127258 328.56838989 C208.58873444 329.53035278 208.57619629 330.49231567 208.5632782 331.48342896 C208.56471329 332.5422226 208.56614838 333.60101624 208.56762695 334.69189453 C208.5574353 335.80409363 208.54724365 336.91629272 208.53674316 338.06219482 C208.50645663 341.75245091 208.49732319 345.44244812 208.48828125 349.1328125 C208.47144621 351.68587111 208.45329758 354.23892137 208.43388367 356.79196167 C208.39112336 362.83385234 208.36165038 368.87566768 208.33856028 374.91765392 C208.31153835 381.79552159 208.26762512 388.67324867 208.22227156 395.55101609 C208.12934552 409.70060378 208.05830055 423.85023112 208 438 C202.06 438 196.12 438 190 438 C190 404.01 190 370.02 190 335 C186.04 336.65 182.08 338.3 178 340 C177.01 340 176.02 340 175 340 C175 385.87 175 431.74 175 479 C169.06 479 163.12 479 157 479 C157 434.78 157 390.56 157 345 C151.39 345.99 145.78 346.98 140 348 C140.144375 349.25554687 140.28875 350.51109375 140.4375 351.8046875 C144.44505148 387.46262556 137.71721817 423.68177306 114.86767578 452.39233398 C113.59531908 453.94339972 112.30349218 455.47503123 111 457 C110.56429688 457.51401367 110.12859375 458.02802734 109.6796875 458.55761719 C87.58704191 484.34851997 56.66975267 500.18143595 23 504 C18.41208651 504.27726424 13.84551259 504.33452475 9.25 504.3125 C8.02498779 504.30758545 6.79997559 504.3026709 5.5378418 504.29760742 C-3.96670978 504.17524738 -12.79130733 503.3091565 -22 501 C-22.68529785 500.83371094 -23.3705957 500.66742188 -24.07666016 500.49609375 C-56.88912982 492.37382301 -86.43950033 470.98002866 -104 442 C-115.96416093 421.74512895 -122.93433605 400.61111681 -124 377 C-124.04125 376.15824219 -124.0825 375.31648438 -124.125 374.44921875 C-124.34043986 365.57578952 -123.08295289 356.78932297 -122 348 C-123.05960937 347.86722656 -124.11921875 347.73445313 -125.2109375 347.59765625 C-126.59898279 347.41946125 -127.98700231 347.2410654 -129.375 347.0625 C-130.07367188 346.97548828 -130.77234375 346.88847656 -131.4921875 346.79882812 C-136.7734375 346.11328125 -136.7734375 346.11328125 -139 345 C-139 389.22 -139 433.44 -139 479 C-144.94 479 -150.88 479 -157 479 C-157 433.13 -157 387.26 -157 340 C-158.65 339.67 -160.3 339.34 -162 339 C-165.3 337.68 -168.6 336.36 -172 335 C-172 368.99 -172 402.98 -172 438 C-177.94 438 -183.88 438 -190 438 C-189.98810135 436.59178482 -189.9762027 435.18356964 -189.96394348 433.73268127 C-189.85887771 420.44666959 -189.81116333 407.16148204 -189.82121754 393.87504673 C-189.82492593 387.04453844 -189.80827202 380.21523528 -189.74291992 373.38500977 C-189.6798811 366.79048082 -189.67459461 360.19751532 -189.70416832 353.60264397 C-189.70606848 351.08967124 -189.68877447 348.57660674 -189.65177345 346.06390572 C-188.70545147 332.52181104 -188.70545147 332.52181104 -193.46517944 320.4760437 C-196.22445991 318.20212989 -198.80307853 316.5714471 -202 315 C-202.66 314.34 -203.32 313.68 -204 313 C-204.33 343.36 -204.66 373.72 -205 405 C-210.94 405 -216.88 405 -223 405 C-222.99254257 403.60510849 -222.98508514 402.21021698 -222.97740173 400.77305603 C-222.91276504 387.57717834 -222.89535657 374.38193056 -222.92484188 361.18591976 C-222.93880972 354.402868 -222.93634574 347.62059872 -222.89379883 340.83764648 C-222.85272607 334.28207566 -222.85929614 327.72752042 -222.89392281 321.17190742 C-222.89948802 318.68068551 -222.88953633 316.18937532 -222.86323357 313.69828606 C-222.73403838 300.48310916 -222.67371501 290.03453747 -230.70362854 279.12208557 C-236.67653222 271.00148456 -239.93683442 260.83050692 -242.8125 251.25 C-243.0074707 250.6017627 -243.20244141 249.95352539 -243.40332031 249.28564453 C-246.6054698 237.96517073 -247.40967112 226.71414716 -247.375 215 C-247.37412384 214.27455994 -247.37324768 213.54911987 -247.37234497 212.80169678 C-247.32481785 200.8376909 -246.47433187 189.50295662 -243 178 C-242.64591064 176.8234082 -242.64591064 176.8234082 -242.28466797 175.62304688 C-231.11937788 139.94594972 -206.37901742 112.30684706 -173.50097656 95.07421875 C-141.52929355 79.09566673 -104.68778913 78.37093538 -71 89 C-69.35 89.66 -67.7 90.32 -66 91 C-66 82.75 -66 74.5 -66 66 C-60.06 66 -54.12 66 -48 66 C-48.07863281 68.34996094 -48.15726563 70.69992188 -48.23828125 73.12109375 C-48.27016103 75.42496229 -48.27955524 77.72791992 -48.28686523 80.03198242 C-48.30378787 81.61997042 -48.34369901 83.20790021 -48.40795898 84.79467773 C-48.49694793 87.09464401 -48.50007388 89.38218733 -48.48828125 91.68359375 C-48.53350418 92.38085068 -48.57872711 93.0781076 -48.62532043 93.79649353 C-48.66856196 96.27379221 -48.66856196 96.27379221 -47 100 C-42.71 102.97 -38.42 105.94 -34 109 C-33.505 79.3 -33.505 79.3 -33 49 C-27.06 49 -21.12 49 -15 49 C-15.0220752 51.32506592 -15.04415039 53.65013184 -15.06689453 56.0456543 C-15.13288029 63.77303129 -15.14320918 71.49978549 -15.12697029 79.22740459 C-15.11881142 83.9078272 -15.12873944 88.58668337 -15.18164062 93.2668457 C-15.23211247 97.79336979 -15.23293392 102.31755177 -15.20095444 106.8442173 C-15.19723576 108.56120713 -15.21067926 110.27833232 -15.24249649 111.99503136 C-15.46911238 125.12354093 -12.84810268 131.27592375 -4 141 C-3.01 142.65 -2.02 144.3 -1 146 C-0.67 97.82 -0.34 49.64 0 0 Z M-199.56640625 136.2265625 C-208.61871753 146.54300071 -215.35137407 157.52203773 -221 170 C-221.40863281 170.86882812 -221.81726563 171.73765625 -222.23828125 172.6328125 C-224.4988604 177.78239436 -225.90712852 183.11608234 -227.25 188.5625 C-227.42563477 189.25915771 -227.60126953 189.95581543 -227.78222656 190.67358398 C-229.04343553 196.10124137 -229 200.16507202 -229 206 C-217.78 206 -206.56 206 -195 206 C-188.12465575 193.03488557 -181.40868739 180.00377897 -174.84619141 166.87768555 C-173.3458052 163.87915401 -171.83898061 160.88390942 -170.33203125 157.88867188 C-169.37461121 155.97675714 -168.41756496 154.06465517 -167.4609375 152.15234375 C-166.7861586 150.81356422 -166.7861586 150.81356422 -166.0977478 149.44773865 C-165.48547836 148.21858482 -165.48547836 148.21858482 -164.86083984 146.96459961 C-164.31984146 145.88474037 -164.31984146 145.88474037 -163.76791382 144.7830658 C-162.86815087 143.01741734 -162.86815087 143.01741734 -163 141 C-162.34 141 -161.68 141 -161 141 C-160.90783203 141.57979614 -160.81566406 142.15959229 -160.72070312 142.75695801 C-159.13249351 152.11283615 -156.80103906 161.26910666 -154.5 170.46875 C-154.05910869 172.23942738 -153.61835585 174.01013924 -153.17773438 175.78088379 C-152.25893761 179.46944204 -151.33739112 183.15730026 -150.4140625 186.84472656 C-149.23075523 191.57202275 -148.05610802 196.3014243 -146.88366699 201.03142548 C-145.97838551 204.67835621 -145.06773148 208.32392921 -144.15551758 211.96913147 C-143.71987335 213.71340189 -143.28610444 215.45814179 -142.85424805 217.20335388 C-142.25216757 219.63375189 -141.64267935 222.06217409 -141.03125 224.49023438 C-140.85456787 225.21022614 -140.67788574 225.9302179 -140.49584961 226.67202759 C-139.66972278 229.92146309 -138.8821022 232.1768467 -137 235 C-133.21276147 225.66664479 -129.43110713 216.33104893 -125.65660858 206.99253368 C-123.90387102 202.6565797 -122.14920355 198.32142764 -120.39013672 193.98803711 C-118.69330768 189.80776411 -117.00153392 185.62547866 -115.3132782 181.44173622 C-114.66758164 179.84417989 -114.02005236 178.24736306 -113.37068176 176.65129662 C-112.46299307 174.41943196 -111.56179664 172.18505091 -110.66210938 169.94995117 C-110.25535225 168.95625015 -110.25535225 168.95625015 -109.84037781 167.94247437 C-108.71129963 165.12016337 -108 163.07302121 -108 160 C-107.34 160 -106.68 160 -106 160 C-105.40868286 161.86869751 -105.40868286 161.86869751 -104.80541992 163.77514648 C-102.88774238 169.520335 -100.51807009 175.04240826 -98.11328125 180.59765625 C-97.65140915 181.67252792 -97.18953705 182.7473996 -96.71366882 183.85484314 C-95.25003122 187.25887877 -93.78135038 190.66071092 -92.3125 194.0625 C-91.31411809 196.38201728 -90.3160678 198.70167733 -89.31835938 201.02148438 C-86.88273974 206.68264666 -84.44298523 212.34201262 -82 218 C-77.20804266 213.52427043 -77.20804266 213.52427043 -71 199 C-36.35 198.505 -36.35 198.505 -1 198 C-7.56468211 165.17658945 -22.99856643 137.18062253 -51.34765625 118.27734375 C-60.44622634 112.47930759 -70.0501506 108.10566077 -80.25 104.625 C-80.94577148 104.38620117 -81.64154297 104.14740234 -82.35839844 103.90136719 C-123.97104156 90.49608215 -169.949674 105.39403665 -199.56640625 136.2265625 Z M47.328125 137.33203125 C27.75468458 158.47693931 17.81658587 186.1267946 17.6875 214.75 C17.68194092 215.77915527 17.67638184 216.80831055 17.6706543 217.86865234 C17.23329592 229.66128346 17.23329592 229.66128346 21 240 C22.41767691 240.29582554 23.8461829 240.54013542 25.27734375 240.76171875 C54.76462894 245.55661464 79.0756919 256.29370901 101 277 C101.81210937 277.73605469 102.62421875 278.47210938 103.4609375 279.23046875 C118.06037781 292.97789125 127.82690989 311.48101256 135 330 C162.67331908 329.11018267 188.19821826 319.31852406 209 301 C210.08076847 300.14259035 211.16364219 299.28781671 212.25 298.4375 C232.58737823 280.41118748 245.86565294 251.9757754 248 225 C249.79107007 192.25519478 240.35547526 162.76699478 218.6875 137.9375 C199.53091104 117.27715149 172.7863065 101.38613474 144.00244141 99.83886719 C105.56119021 99.32655546 74.429299 109.03222396 47.328125 137.33203125 Z M-168 191 C-170.14132334 195.23328993 -172.2774277 199.4691561 -174.40869141 203.70751953 C-175.13479257 205.14965065 -175.86232665 206.59106122 -176.59130859 208.03173828 C-177.63754818 210.10001872 -178.67864446 212.170817 -179.71875 214.2421875 C-180.04685669 214.88807831 -180.37496338 215.53396912 -180.7130127 216.19943237 C-182.43856813 219.44023559 -182.43856813 219.44023559 -183 223 C-198.18 223 -213.36 223 -229 223 C-229 229.28723871 -228.84196385 234.20643821 -227.375 240.125 C-227.19751221 240.85364258 -227.02002441 241.58228516 -226.8371582 242.33300781 C-218.87018818 273.52486159 -198.92540248 298.76463398 -171.484375 315.11328125 C-154.42901539 324.92457479 -136.49281718 329.01236393 -117 330 C-116.74347656 329.33097656 -116.48695313 328.66195312 -116.22265625 327.97265625 C-102.15766226 292.69177906 -77.81252597 265.63311142 -43 250 C-30.23288977 244.79412107 -16.72077532 241.37207753 -3 240 C0.16151245 231.35853263 0 224.44320551 0 215 C-19.8 215 -39.6 215 -60 215 C-67.26 229.52 -74.52 244.04 -82 259 C-85.33221179 252.33557641 -88.47768455 245.75609844 -91.35546875 238.90625 C-92.15031006 237.03381996 -92.94523425 235.16142511 -93.74023438 233.2890625 C-94.97289879 230.37535724 -96.2039542 227.46098455 -97.43334961 224.54589844 C-98.63245485 221.7059248 -99.8373863 218.86847876 -101.04296875 216.03125 C-101.41068893 215.15424438 -101.77840912 214.27723877 -102.15727234 213.37365723 C-102.50135635 212.56521362 -102.84544037 211.75677002 -103.19995117 210.92382812 C-103.6503199 209.8565448 -103.6503199 209.8565448 -104.10978699 208.7677002 C-104.97877878 206.8122222 -104.97877878 206.8122222 -107 205 C-118.22 233.05 -129.44 261.1 -141 290 C-143.01200868 283.96397395 -144.82925649 278.08632315 -146.32836914 271.93188477 C-146.54017319 271.0754689 -146.75197723 270.21905304 -146.97019958 269.33668518 C-147.42514239 267.49561271 -147.87848896 265.65414517 -148.33036995 263.8123188 C-149.04555665 260.89904075 -149.76588597 257.98707785 -150.48765564 255.07542419 C-152.53736625 246.80349511 -154.57893713 238.52957147 -156.61450195 230.25415039 C-157.86340138 225.17838963 -159.11910194 220.1043515 -160.37905693 215.03132439 C-160.8573706 213.09941848 -161.33300282 211.16684667 -161.80592537 209.23361397 C-162.46458664 206.54157141 -163.13180714 203.85178791 -163.80102539 201.16235352 C-163.99483795 200.36081848 -164.18865051 199.55928345 -164.38833618 198.73345947 C-165.40324109 194.45297633 -165.40324109 194.45297633 -168 191 Z M-75.17749023 292.81738281 C-89.80698122 308.04051554 -99.79682195 327.30179182 -104 348 C-104.22171875 348.91652344 -104.4434375 349.83304687 -104.671875 350.77734375 C-110.57587055 378.58197142 -103.74213545 409.06543765 -88.80664062 432.90478516 C-70.95237305 460.00551961 -44.63503633 478.1215824 -13 485 C16.73877281 490.88490605 47.49444124 484.42674651 72.75878906 467.84570312 C76.31001147 465.39441686 79.67328107 462.74515918 83 460 C83.79792969 459.35417969 84.59585938 458.70835937 85.41796875 458.04296875 C91.40256983 452.98541431 96.24533612 447.20820753 101 441 C101.60714844 440.22011719 102.21429688 439.44023437 102.83984375 438.63671875 C120.5216641 414.78029447 127.55844556 383.90348378 123.30859375 354.6484375 C118.14825058 324.51638376 102.04849681 296.35563824 77.125 278.1875 C75.43316906 277.0989151 73.72290662 276.03870198 72 275 C71.45746582 274.65662598 70.91493164 274.31325195 70.35595703 273.95947266 C56.54071403 265.25568109 40.35363097 258.65906401 24 257 C22.26363281 256.80277344 22.26363281 256.80277344 20.4921875 256.6015625 C-15.9695301 253.33957981 -49.66167867 267.07504462 -75.17749023 292.81738281 Z " fill="#566EE9" transform="translate(247,0)"/>
<path d="M0 0 C0.66 0 1.32 0 2 0 C3.14631653 1.38105774 3.14631653 1.38105774 4.42895508 3.35668945 C4.91682999 4.10034256 5.4047049 4.84399567 5.90736389 5.61018372 C6.43937912 6.4362059 6.97139435 7.26222809 7.51953125 8.11328125 C8.08236313 8.97414841 8.64519501 9.83501556 9.2250824 10.7219696 C11.09356959 13.58160374 12.95286445 16.44710338 14.8125 19.3125 C17.4345915 23.33218672 20.06227204 27.34819812 22.69140625 31.36328125 C23.36839569 32.39808624 24.04538513 33.43289124 24.7428894 34.49905396 C29.54695883 41.82684855 34.41998366 49.1049742 39.33984375 56.35546875 C40.0080867 57.34082108 40.67632965 58.3261734 41.36482239 59.34138489 C43.96616794 63.17383686 46.56960873 67.00478079 49.18374634 70.82852173 C50.98662666 73.46581223 52.78279543 76.10756623 54.578125 78.75 C55.11529648 79.53034103 55.65246796 80.31068207 56.20591736 81.1146698 C56.69387283 81.83479752 57.18182831 82.55492523 57.68457031 83.296875 C58.11006165 83.91916992 58.53555298 84.54146484 58.97393799 85.18261719 C60.10840438 87.19200814 60.74166167 88.70122736 61 91 C60.21444702 92.81738281 60.21444702 92.81738281 58.91162109 94.703125 C58.42350449 95.42325272 57.93538788 96.14338043 57.43247986 96.8853302 C56.88499588 97.66567123 56.3375119 98.44601227 55.7734375 99.25 C55.20649673 100.08041306 54.63955597 100.91082611 54.05543518 101.7664032 C52.17331641 104.51891838 50.27430069 107.25931895 48.375 110 C45.71168539 113.87757507 43.05675926 117.76086059 40.40234375 121.64453125 C39.71545975 122.6470845 39.02857574 123.64963776 38.32087708 124.68257141 C33.3648037 131.93697494 28.53075389 139.26327467 23.75390625 146.63671875 C22.763302 148.16149338 22.763302 148.16149338 21.75268555 149.71707153 C19.17389884 153.68790954 16.59586797 157.65890745 14.043396 161.64672852 C12.27924019 164.4013908 10.49875834 167.14482674 8.71484375 169.88671875 C7.93228966 171.12575203 7.93228966 171.12575203 7.13392639 172.38981628 C6.64621262 173.13346939 6.15849884 173.8771225 5.65600586 174.64331055 C5.23717636 175.29526901 4.81834686 175.94722748 4.38682556 176.61894226 C3 178 3 178 -1 178 C-2.38682556 176.66363525 -2.38682556 176.66363525 -3.65600586 174.75097656 C-4.38757652 173.67030159 -4.38757652 173.67030159 -5.13392639 172.5677948 C-5.65562912 171.76682877 -6.17733185 170.96586273 -6.71484375 170.140625 C-7.55498268 168.88678764 -7.55498268 168.88678764 -8.41209412 167.60762024 C-10.26768564 164.8306574 -12.10289608 162.04086453 -13.9375 159.25 C-15.2179276 157.32087895 -16.4993538 155.39242037 -17.78173828 153.46459961 C-20.47545647 149.41019587 -23.16038648 145.35013987 -25.84033203 141.28662109 C-29.30810641 136.03494699 -32.80803248 130.80568385 -36.32087708 125.58407593 C-39.03016645 121.55451171 -41.72840937 117.51763201 -44.42434692 113.47912598 C-45.72418619 111.53559997 -47.02779688 109.59459099 -48.33517456 107.65612793 C-50.1601184 104.94662163 -51.96868119 102.22688569 -53.7734375 99.50390625 C-54.32092148 98.69850906 -54.86840546 97.89311188 -55.43247986 97.06330872 C-55.92059647 96.31997787 -56.40871307 95.57664703 -56.91162109 94.81079102 C-57.34155365 94.167715 -57.77148621 93.52463898 -58.21444702 92.86207581 C-59.23629431 90.43988766 -58.94094296 89.42749431 -58 87 C-56.97393799 85.13792419 -56.97393799 85.13792419 -55.68457031 83.18920898 C-55.19661484 82.44587814 -54.70865936 81.7025473 -54.20591736 80.93669128 C-53.40016014 79.7285955 -53.40016014 79.7285955 -52.578125 78.49609375 C-51.73182274 77.21301079 -51.73182274 77.21301079 -50.86842346 75.90400696 C-49.00163639 73.07780133 -47.12623812 70.25743867 -45.25 67.4375 C-43.95251146 65.4802802 -42.65523223 63.52292163 -41.3581543 61.56542969 C-37.94618402 56.42173464 -34.52468688 51.28444961 -31.09979248 46.14935303 C-29.0035469 43.00531978 -26.91000407 39.85950059 -24.81689453 36.71337891 C-21.46528101 31.67816658 -18.10495265 26.64888144 -14.73742676 21.6242981 C-13.4535039 19.70714618 -12.1716848 17.78858372 -10.89196777 15.86862183 C-9.10791747 13.19426102 -7.31507285 10.52602937 -5.51953125 7.859375 C-4.98751602 7.05840897 -4.45550079 6.25744293 -3.90736389 5.4322052 C-3.17555153 4.35153023 -3.17555153 4.35153023 -2.42895508 3.24902344 C-2.00568436 2.61784607 -1.58241364 1.9866687 -1.14631653 1.33636475 C-0.76803207 0.89536438 -0.38974762 0.45436401 0 0 Z M-9 46 C-9.84570832 47.08808107 -10.64448604 48.21265181 -11.42431641 49.34887695 C-11.92798737 50.0799617 -12.43165833 50.81104645 -12.95059204 51.56428528 C-13.49541229 52.36420395 -14.04023254 53.16412262 -14.6015625 53.98828125 C-15.15742035 54.80241989 -15.7132782 55.61655853 -16.28598022 56.45536804 C-17.46312246 58.18334784 -18.63824319 59.91270617 -19.81152344 61.64331055 C-21.61451516 64.29706775 -23.43197913 66.94050907 -25.25 69.58398438 C-26.38893244 71.25979747 -27.52698295 72.93621037 -28.6640625 74.61328125 C-29.21293121 75.40712723 -29.76179993 76.20097321 -30.32730103 77.01887512 C-31.07335098 78.12968697 -31.07335098 78.12968697 -31.83447266 79.26293945 C-32.27779938 79.91357864 -32.7211261 80.56421783 -33.17788696 81.23457336 C-34.32513078 83.16986158 -34.32513078 83.16986158 -33 86 C-30.50912527 87.17049178 -30.50912527 87.17049178 -27.43359375 88.04296875 C-26.42095459 88.36031982 -25.40831543 88.6776709 -24.36499023 89.00463867 C-22.42088257 89.59015503 -22.42088257 89.59015503 -20.4375 90.1875 C-16.333125 91.445625 -12.22875 92.70375 -8 94 C-8 78.16 -8 62.32 -8 46 C-8.33 46 -8.66 46 -9 46 Z M10 46 C10 61.84 10 77.68 10 94 C18.25 91.36 26.5 88.72 35 86 C35 81.98092926 34.89193503 81.33859278 32.81274414 78.24121094 C32.33547379 77.52076599 31.85820343 76.80032104 31.36647034 76.05804443 C30.84463669 75.29123352 30.32280304 74.52442261 29.78515625 73.734375 C29.25482285 72.94097717 28.72448944 72.14757935 28.17808533 71.33013916 C27.05671905 69.65631788 25.93091588 67.98546179 24.80102539 66.31738281 C23.06382469 63.75195625 21.34041288 61.17769644 19.61914062 58.6015625 C18.52943905 56.97863379 17.43897059 55.35621967 16.34765625 53.734375 C15.82784683 52.95946716 15.30803741 52.18455933 14.7724762 51.38616943 C13.54150045 49.57249648 12.27460013 47.783285 11 46 C10.67 46 10.34 46 10 46 Z M-26 107 C-22.56546505 113.41528916 -18.8060184 119.5232079 -14.75 125.5625 C-13.93789063 126.78936523 -13.93789063 126.78936523 -13.109375 128.04101562 C-12.3359375 129.19827148 -12.3359375 129.19827148 -11.546875 130.37890625 C-11.08120117 131.0757251 -10.61552734 131.77254395 -10.13574219 132.49047852 C-9.76094727 132.98862061 -9.38615234 133.4867627 -9 134 C-8.67 134 -8.34 134 -8 134 C-8 126.74 -8 119.48 -8 112 C-10.413125 111.175 -12.82625 110.35 -15.3125 109.5 C-16.06829346 109.23896484 -16.82408691 108.97792969 -17.6027832 108.70898438 C-20.52487323 107.72282302 -22.89614406 107 -26 107 Z M17.3125 109.4375 C14.899375 110.283125 12.48625 111.12875 10 112 C10 119.26 10 126.52 10 134 C12.67773156 130.65283555 15.10273228 127.46532072 17.453125 123.91796875 C18.071875 122.98662109 18.690625 122.05527344 19.328125 121.09570312 C19.96234375 120.13599609 20.5965625 119.17628906 21.25 118.1875 C21.8996875 117.20845703 22.549375 116.22941406 23.21875 115.22070312 C24.81460524 112.81518603 26.4082806 110.40825491 28 108 C23.92402653 106.64134218 21.18237422 108.05431183 17.3125 109.4375 Z " fill="#497AE5" transform="translate(379,125)"/>
<path d="M0 0 C5.94 0 11.88 0 18 0 C18 5.28 18 10.56 18 16 C19.65 16.2475 21.3 16.495 23 16.75 C31.397736 18.28274873 38.60691511 21.62094856 43.94921875 28.515625 C49.83077525 37.76751163 52.4001493 45.76382766 50.53515625 56.734375 C49.16031783 62.62421534 47.18360593 66.7769781 43.20703125 71.34375 C41.70551763 73.06251074 41.70551763 73.06251074 42 76 C43.22092862 77.98661508 43.22092862 77.98661508 44.8125 80.0625 C49.78820059 87.32020038 52.0843874 95.20441329 51 104 C49.10593846 113.97539077 44.43556484 122.01765832 36 127.78515625 C30.0238692 131.41518882 24.84939643 132.47312335 18 133 C18 138.28 18 143.56 18 149 C12.06 149 6.12 149 0 149 C0 143.72 0 138.44 0 133 C-8.25 133 -16.5 133 -25 133 C-25 94.39 -25 55.78 -25 16 C-16.75 16 -8.5 16 0 16 C0 10.72 0 5.44 0 0 Z M-7 34 C-7 44.56 -7 55.12 -7 66 C-2.71 66.0825 1.58 66.165 6 66.25 C8.00513672 66.30462402 8.00513672 66.30462402 10.05078125 66.36035156 C17.20767174 66.42677779 21.96420245 65.94952664 28 62 C32.40579526 57.36826653 33.36198456 53.49781093 33.28125 47.28125 C32.69180611 42.50020514 29.85179203 39.75038822 26.375 36.6875 C22.46224301 33.90738319 20.26362309 33.88146251 15.4609375 33.90234375 C13.70209229 33.90609009 13.70209229 33.90609009 11.90771484 33.90991211 C10.41191895 33.91901611 8.91612305 33.92812012 7.375 33.9375 C0.259375 33.9684375 0.259375 33.9684375 -7 34 Z M-7 83 C-7 93.56 -7 104.12 -7 115 C-0.0390625 115.12375 -0.0390625 115.12375 7.0625 115.25 C8.51277588 115.28641602 9.96305176 115.32283203 11.45727539 115.36035156 C20.94891265 115.45082106 20.94891265 115.45082106 29 111 C32.52630264 106.72216905 33.66599568 102.74798208 33.3828125 97.20703125 C32.49204037 92.07145725 30.10419392 88.87415352 26 85.625 C21.4837724 83.17871005 18.04168296 82.87724665 12.921875 82.90234375 C11.35324707 82.90609009 11.35324707 82.90609009 9.75292969 82.90991211 C7.77147949 82.92356812 7.77147949 82.92356812 5.75 82.9375 C1.5425 82.958125 -2.665 82.97875 -7 83 Z " fill="#7652F3" transform="translate(247,297)"/>
<path d="M0 0 C19.93486056 18.07389762 31.80393684 42.38405226 33.65966797 69.28320312 C34.80279549 94.1585331 27.49930527 119.73752137 10.76171875 138.50390625 C6.6235817 137.9721363 4.49089557 135.72458459 1.51171875 132.94140625 C0.6196875 132.11511719 -0.27234375 131.28882813 -1.19140625 130.4375 C-1.866875 129.79941406 -2.54234375 129.16132813 -3.23828125 128.50390625 C-1.62026557 125.03672978 0.41773859 121.9516899 2.51171875 118.75390625 C13.91202424 100.67694858 17.66193883 79.23745 13.63671875 58.25390625 C8.06965918 36.03745456 -4.20940024 17.32123485 -24.08398438 5.39648438 C-43.13738242 -5.47732672 -65.17701678 -9.2008182 -86.73828125 -3.99609375 C-98.42783985 -0.56585907 -109.43035168 5.31142456 -119.23828125 12.50390625 C-120.8900088 10.73826646 -122.5346617 8.96686027 -124.17578125 7.19140625 C-124.64435547 6.69189453 -125.11292969 6.19238281 -125.59570312 5.67773438 C-127.79525228 3.28829609 -129.19854938 1.62310187 -130.23828125 -1.49609375 C-93.55729777 -34.65005959 -36.48890097 -30.76311052 0 0 Z " fill="#695DEF" transform="translate(322.23828125,296.49609375)"/>
<path d="M0 0 C4.06498881 1.37184347 6.67396561 3.22068459 9.8125 6.125 C10.60269531 6.84945313 11.39289063 7.57390625 12.20703125 8.3203125 C12.79871094 8.87460937 13.39039063 9.42890625 14 10 C12.54129059 13.14363578 10.73871282 16.00483859 8.87719727 18.9230957 C3.78627027 27.00819401 0.52015494 34.77708001 -2 44 C-2.24492187 44.82371094 -2.48984375 45.64742188 -2.7421875 46.49609375 C-7.461192 65.1458581 -3.47659769 87.08486948 5.97265625 103.5390625 C17.73533773 123.0347653 35.23930551 137.02465126 57.375 142.875 C80.40181214 147.89287484 103.01967877 143.43900222 123 131 C123.86367188 130.24847656 124.72734375 129.49695313 125.6171875 128.72265625 C128 127 128 127 130.015625 126.91015625 C132.98037873 128.53843635 134.65361164 130.80331266 136.75 133.4375 C137.94882812 134.92056641 137.94882812 134.92056641 139.171875 136.43359375 C141 139 141 139 141 141 C138.80449274 142.68838456 136.62330584 144.23316622 134.3125 145.75 C133.63203613 146.19811035 132.95157227 146.6462207 132.25048828 147.10791016 C109.39399313 161.8473442 81.67435621 166.92740642 55 161.4375 C30.05980527 155.72514609 7.49903395 140.14798644 -6.5625 118.75 C-21.57748913 94.22887681 -26.62312294 66.93869812 -20.0703125 38.78515625 C-16.41798584 24.56428994 -9.77490768 11.03213054 0 0 Z " fill="#8347F6" transform="translate(179,308)"/>
<path d="M0 0 C5.94 0 11.88 0 18 0 C18 5.61 18 11.22 18 17 C12.06 17 6.12 17 0 17 C0 11.39 0 5.78 0 0 Z " fill="#9C31FE" transform="translate(404,495)"/>
<path d="M0 0 C5.94 0 11.88 0 18 0 C18 5.61 18 11.22 18 17 C12.06 17 6.12 17 0 17 C0 11.39 0 5.78 0 0 Z " fill="#9C31FE" transform="translate(90,495)"/>
<path d="M0 0 C5.94 0 11.88 0 18 0 C18 5.61 18 11.22 18 17 C12.06 17 6.12 17 0 17 C0 11.39 0 5.78 0 0 Z " fill="#903BFA" transform="translate(437,454)"/>
<path d="M0 0 C5.94 0 11.88 0 18 0 C18 5.61 18 11.22 18 17 C12.06 17 6.12 17 0 17 C0 11.39 0 5.78 0 0 Z " fill="#903BFA" transform="translate(57,454)"/>
<path d="M0 0 C5.94 0 11.88 0 18 0 C18 5.61 18 11.22 18 17 C12.06 17 6.12 17 0 17 C0 11.39 0 5.78 0 0 Z " fill="#8743F7" transform="translate(470,421)"/>
<path d="M0 0 C5.94 0 11.88 0 18 0 C18 5.61 18 11.22 18 17 C12.06 17 6.12 17 0 17 C0 11.39 0 5.78 0 0 Z " fill="#8743F7" transform="translate(24,421)"/>
<path d="M0 0 C5.94 0 11.88 0 18 0 C18 5.61 18 11.22 18 17 C12.06 17 6.12 17 0 17 C0 11.39 0 5.78 0 0 Z " fill="#12AAD5" transform="translate(280,16)"/>
<path d="M0 0 C5.94 0 11.88 0 18 0 C18 5.61 18 11.22 18 17 C12.06 17 6.12 17 0 17 C0 11.39 0 5.78 0 0 Z " fill="#12AAD5" transform="translate(214,16)"/>
</svg>
